<mxfile host="app.diagrams.net" modified="2024-02-24T10:38:43.241Z" agent="Mozilla/5.0 (Windows NT 10.0; Win64; x64) AppleWebKit/537.36 (KHTML, like Gecko) Chrome/120.0.0.0 YaBrowser/24.1.0.0 Safari/537.36" etag="iEUiPYuoIDayv-F-8lVD" version="23.1.6" type="google">
  <diagram id="6I0OCvxSQrVGMHxT2VVA" name="Page-1">
    <mxGraphModel grid="0" page="1" gridSize="10" guides="1" tooltips="1" connect="1" arrows="1" fold="1" pageScale="1" pageWidth="3300" pageHeight="4681" math="0" shadow="0">
      <root>
        <mxCell id="0" />
        <mxCell id="1" parent="0" />
        <mxCell id="wyf09ecqhNXCvQuimi6P-8" value="" style="html=1;whiteSpace=wrap;fillColor=#ffff99;shape=mxgraph.archimate3.actor;fontSize=14;" vertex="1" parent="1">
          <mxGeometry x="80" y="280" width="50" height="95" as="geometry" />
        </mxCell>
        <mxCell id="wyf09ecqhNXCvQuimi6P-9" value="" style="html=1;whiteSpace=wrap;fillColor=#ffff99;shape=mxgraph.archimate3.actor;fontSize=14;" vertex="1" parent="1">
          <mxGeometry x="692.5" y="218" width="50" height="95" as="geometry" />
        </mxCell>
        <mxCell id="wyf09ecqhNXCvQuimi6P-10" value="Клиент" style="text;html=1;align=center;verticalAlign=middle;resizable=0;points=[];autosize=1;strokeColor=none;fillColor=none;" vertex="1" parent="1">
          <mxGeometry x="76" y="388" width="58" height="26" as="geometry" />
        </mxCell>
        <mxCell id="wyf09ecqhNXCvQuimi6P-11" value="Администратор" style="text;html=1;align=center;verticalAlign=middle;resizable=0;points=[];autosize=1;strokeColor=none;fillColor=none;" vertex="1" parent="1">
          <mxGeometry x="665" y="327" width="105" height="26" as="geometry" />
        </mxCell>
        <mxCell id="wyf09ecqhNXCvQuimi6P-12" value="Административные процедуры" style="rounded=1;whiteSpace=wrap;html=1;arcSize=50;" vertex="1" parent="1">
          <mxGeometry x="360" y="37" width="130" height="47" as="geometry" />
        </mxCell>
        <mxCell id="wyf09ecqhNXCvQuimi6P-15" value="" style="endArrow=classic;html=1;rounded=0;exitX=0.2;exitY=0.15;exitDx=0;exitDy=0;exitPerimeter=0;entryX=1;entryY=0.5;entryDx=0;entryDy=0;" edge="1" parent="1" source="wyf09ecqhNXCvQuimi6P-9" target="wyf09ecqhNXCvQuimi6P-12">
          <mxGeometry width="50" height="50" relative="1" as="geometry">
            <mxPoint x="403" y="296" as="sourcePoint" />
            <mxPoint x="453" y="246" as="targetPoint" />
          </mxGeometry>
        </mxCell>
        <mxCell id="wyf09ecqhNXCvQuimi6P-16" value="Регистрация учеников" style="rounded=1;whiteSpace=wrap;html=1;arcSize=50;" vertex="1" parent="1">
          <mxGeometry x="98" y="126.5" width="98" height="46" as="geometry" />
        </mxCell>
        <mxCell id="wyf09ecqhNXCvQuimi6P-18" value="" style="endArrow=classic;html=1;rounded=0;exitX=0.25;exitY=1;exitDx=0;exitDy=0;entryX=0.5;entryY=0;entryDx=0;entryDy=0;dashed=1;" edge="1" parent="1" source="wyf09ecqhNXCvQuimi6P-12" target="wyf09ecqhNXCvQuimi6P-16">
          <mxGeometry width="50" height="50" relative="1" as="geometry">
            <mxPoint x="403" y="296" as="sourcePoint" />
            <mxPoint x="453" y="246" as="targetPoint" />
          </mxGeometry>
        </mxCell>
        <mxCell id="wyf09ecqhNXCvQuimi6P-19" value="Выдача документов" style="rounded=1;whiteSpace=wrap;html=1;arcSize=50;" vertex="1" parent="1">
          <mxGeometry x="206" y="180" width="97" height="49" as="geometry" />
        </mxCell>
        <mxCell id="wyf09ecqhNXCvQuimi6P-22" value="" style="endArrow=classic;html=1;rounded=0;exitX=0.5;exitY=1;exitDx=0;exitDy=0;entryX=0.5;entryY=0;entryDx=0;entryDy=0;dashed=1;" edge="1" parent="1" source="wyf09ecqhNXCvQuimi6P-12" target="wyf09ecqhNXCvQuimi6P-19">
          <mxGeometry width="50" height="50" relative="1" as="geometry">
            <mxPoint x="403" y="94" as="sourcePoint" />
            <mxPoint x="230" y="138" as="targetPoint" />
          </mxGeometry>
        </mxCell>
        <mxCell id="wyf09ecqhNXCvQuimi6P-23" value="" style="html=1;whiteSpace=wrap;fillColor=#ffff99;shape=mxgraph.archimate3.actor;fontSize=14;" vertex="1" parent="1">
          <mxGeometry x="483" y="195" width="33" height="63" as="geometry" />
        </mxCell>
        <mxCell id="wyf09ecqhNXCvQuimi6P-24" value="Финансковый учёт" style="rounded=1;whiteSpace=wrap;html=1;arcSize=50;" vertex="1" parent="1">
          <mxGeometry x="458" y="126.5" width="97" height="49" as="geometry" />
        </mxCell>
        <mxCell id="wyf09ecqhNXCvQuimi6P-25" value="" style="endArrow=classic;html=1;rounded=0;exitX=0.662;exitY=1.128;exitDx=0;exitDy=0;entryX=0.5;entryY=0;entryDx=0;entryDy=0;dashed=1;exitPerimeter=0;" edge="1" parent="1" source="wyf09ecqhNXCvQuimi6P-12" target="wyf09ecqhNXCvQuimi6P-24">
          <mxGeometry width="50" height="50" relative="1" as="geometry">
            <mxPoint x="435" y="94" as="sourcePoint" />
            <mxPoint x="358" y="135" as="targetPoint" />
          </mxGeometry>
        </mxCell>
        <mxCell id="wyf09ecqhNXCvQuimi6P-26" value="" style="endArrow=classic;html=1;rounded=0;exitX=0.5;exitY=0;exitDx=0;exitDy=0;exitPerimeter=0;entryX=0.5;entryY=1;entryDx=0;entryDy=0;" edge="1" parent="1" source="wyf09ecqhNXCvQuimi6P-23" target="wyf09ecqhNXCvQuimi6P-24">
          <mxGeometry width="50" height="50" relative="1" as="geometry">
            <mxPoint x="403" y="296" as="sourcePoint" />
            <mxPoint x="453" y="246" as="targetPoint" />
          </mxGeometry>
        </mxCell>
        <mxCell id="wyf09ecqhNXCvQuimi6P-27" value="Бухгалтер" style="text;html=1;align=center;verticalAlign=middle;resizable=0;points=[];autosize=1;strokeColor=none;fillColor=none;" vertex="1" parent="1">
          <mxGeometry x="462.5" y="262" width="74" height="26" as="geometry" />
        </mxCell>
        <mxCell id="wyf09ecqhNXCvQuimi6P-28" value="Отчётность" style="rounded=1;whiteSpace=wrap;html=1;arcSize=50;" vertex="1" parent="1">
          <mxGeometry x="338" y="142" width="97" height="49" as="geometry" />
        </mxCell>
        <mxCell id="wyf09ecqhNXCvQuimi6P-29" value="" style="endArrow=classic;html=1;rounded=0;exitX=0.557;exitY=0.974;exitDx=0;exitDy=0;entryX=0.5;entryY=0;entryDx=0;entryDy=0;dashed=1;exitPerimeter=0;" edge="1" parent="1" source="wyf09ecqhNXCvQuimi6P-12" target="wyf09ecqhNXCvQuimi6P-28">
          <mxGeometry width="50" height="50" relative="1" as="geometry">
            <mxPoint x="435" y="94" as="sourcePoint" />
            <mxPoint x="273" y="137" as="targetPoint" />
          </mxGeometry>
        </mxCell>
        <mxCell id="wyf09ecqhNXCvQuimi6P-30" value="" style="html=1;whiteSpace=wrap;fillColor=#ffff99;shape=mxgraph.archimate3.actor;fontSize=14;" vertex="1" parent="1">
          <mxGeometry x="1109" y="478" width="50" height="95" as="geometry" />
        </mxCell>
        <mxCell id="wyf09ecqhNXCvQuimi6P-31" value="Маркетолог" style="text;html=1;align=center;verticalAlign=middle;resizable=0;points=[];autosize=1;strokeColor=none;fillColor=none;" vertex="1" parent="1">
          <mxGeometry x="1092.5" y="580" width="83" height="26" as="geometry" />
        </mxCell>
        <mxCell id="wyf09ecqhNXCvQuimi6P-33" value="Маркетинг и привлечение клиентов" style="rounded=1;whiteSpace=wrap;html=1;arcSize=50;" vertex="1" parent="1">
          <mxGeometry x="712" y="522" width="170" height="47" as="geometry" />
        </mxCell>
        <mxCell id="wyf09ecqhNXCvQuimi6P-34" value="" style="endArrow=classic;html=1;rounded=0;exitX=0.2;exitY=0.15;exitDx=0;exitDy=0;exitPerimeter=0;entryX=1;entryY=0.5;entryDx=0;entryDy=0;" edge="1" parent="1" source="wyf09ecqhNXCvQuimi6P-30" target="wyf09ecqhNXCvQuimi6P-33">
          <mxGeometry width="50" height="50" relative="1" as="geometry">
            <mxPoint x="792" y="437" as="sourcePoint" />
            <mxPoint x="842" y="387" as="targetPoint" />
          </mxGeometry>
        </mxCell>
        <mxCell id="wyf09ecqhNXCvQuimi6P-35" value="Рекламные кампании" style="rounded=1;whiteSpace=wrap;html=1;arcSize=50;" vertex="1" parent="1">
          <mxGeometry x="638" y="420.5" width="97" height="47" as="geometry" />
        </mxCell>
        <mxCell id="wyf09ecqhNXCvQuimi6P-36" value="" style="endArrow=classic;html=1;rounded=0;exitX=0.5;exitY=0;exitDx=0;exitDy=0;entryX=0.5;entryY=1;entryDx=0;entryDy=0;dashed=1;" edge="1" parent="1" source="wyf09ecqhNXCvQuimi6P-33" target="wyf09ecqhNXCvQuimi6P-35">
          <mxGeometry width="50" height="50" relative="1" as="geometry">
            <mxPoint x="792" y="458" as="sourcePoint" />
            <mxPoint x="842" y="408" as="targetPoint" />
          </mxGeometry>
        </mxCell>
        <mxCell id="wyf09ecqhNXCvQuimi6P-37" value="Акции" style="rounded=1;whiteSpace=wrap;html=1;arcSize=50;" vertex="1" parent="1">
          <mxGeometry x="774" y="419" width="66" height="50" as="geometry" />
        </mxCell>
        <mxCell id="wyf09ecqhNXCvQuimi6P-42" value="" style="endArrow=classic;html=1;rounded=0;exitX=0.5;exitY=0;exitDx=0;exitDy=0;entryX=0.5;entryY=1;entryDx=0;entryDy=0;dashed=1;" edge="1" parent="1" source="wyf09ecqhNXCvQuimi6P-33" target="wyf09ecqhNXCvQuimi6P-37">
          <mxGeometry width="50" height="50" relative="1" as="geometry">
            <mxPoint x="792" y="458" as="sourcePoint" />
            <mxPoint x="842" y="408" as="targetPoint" />
          </mxGeometry>
        </mxCell>
        <mxCell id="wyf09ecqhNXCvQuimi6P-43" value="Участие в мероприятиях для привлечения новых учеников" style="rounded=1;whiteSpace=wrap;html=1;arcSize=50;" vertex="1" parent="1">
          <mxGeometry x="879" y="419" width="181" height="50" as="geometry" />
        </mxCell>
        <mxCell id="wyf09ecqhNXCvQuimi6P-45" value="" style="endArrow=classic;html=1;rounded=0;exitX=0.5;exitY=0;exitDx=0;exitDy=0;entryX=0.5;entryY=1;entryDx=0;entryDy=0;dashed=1;" edge="1" parent="1" source="wyf09ecqhNXCvQuimi6P-33" target="wyf09ecqhNXCvQuimi6P-43">
          <mxGeometry width="50" height="50" relative="1" as="geometry">
            <mxPoint x="792" y="458" as="sourcePoint" />
            <mxPoint x="842" y="408" as="targetPoint" />
          </mxGeometry>
        </mxCell>
        <mxCell id="wyf09ecqhNXCvQuimi6P-46" value="Управление учебным процессом" style="rounded=1;whiteSpace=wrap;html=1;arcSize=50;" vertex="1" parent="1">
          <mxGeometry x="975" y="220" width="130" height="47" as="geometry" />
        </mxCell>
        <mxCell id="wyf09ecqhNXCvQuimi6P-48" value="" style="endArrow=classic;html=1;rounded=0;exitX=0.8;exitY=0.15;exitDx=0;exitDy=0;exitPerimeter=0;entryX=0;entryY=0.5;entryDx=0;entryDy=0;" edge="1" parent="1" source="wyf09ecqhNXCvQuimi6P-9" target="wyf09ecqhNXCvQuimi6P-46">
          <mxGeometry width="50" height="50" relative="1" as="geometry">
            <mxPoint x="782" y="332" as="sourcePoint" />
            <mxPoint x="832" y="282" as="targetPoint" />
          </mxGeometry>
        </mxCell>
        <mxCell id="wyf09ecqhNXCvQuimi6P-49" value="Система мониторинга прогресса учеников" style="rounded=1;whiteSpace=wrap;html=1;arcSize=50;" vertex="1" parent="1">
          <mxGeometry x="822" y="310" width="149" height="47" as="geometry" />
        </mxCell>
        <mxCell id="wyf09ecqhNXCvQuimi6P-50" value="" style="endArrow=classic;html=1;rounded=0;exitX=0.5;exitY=1;exitDx=0;exitDy=0;entryX=0.5;entryY=0;entryDx=0;entryDy=0;dashed=1;" edge="1" parent="1" source="wyf09ecqhNXCvQuimi6P-46" target="wyf09ecqhNXCvQuimi6P-49">
          <mxGeometry width="50" height="50" relative="1" as="geometry">
            <mxPoint x="782" y="332" as="sourcePoint" />
            <mxPoint x="832" y="282" as="targetPoint" />
          </mxGeometry>
        </mxCell>
        <mxCell id="wyf09ecqhNXCvQuimi6P-51" value="Оценочные тесты" style="rounded=1;whiteSpace=wrap;html=1;arcSize=50;" vertex="1" parent="1">
          <mxGeometry x="994" y="310" width="130" height="47" as="geometry" />
        </mxCell>
        <mxCell id="wyf09ecqhNXCvQuimi6P-52" value="" style="endArrow=classic;html=1;rounded=0;dashed=1;exitX=0.5;exitY=1;exitDx=0;exitDy=0;" edge="1" parent="1" source="wyf09ecqhNXCvQuimi6P-46" target="wyf09ecqhNXCvQuimi6P-51">
          <mxGeometry width="50" height="50" relative="1" as="geometry">
            <mxPoint x="782" y="332" as="sourcePoint" />
            <mxPoint x="832" y="282" as="targetPoint" />
          </mxGeometry>
        </mxCell>
        <mxCell id="wyf09ecqhNXCvQuimi6P-53" value="Индивидуальные консультации" style="rounded=1;whiteSpace=wrap;html=1;arcSize=50;" vertex="1" parent="1">
          <mxGeometry x="1141" y="313" width="130" height="47" as="geometry" />
        </mxCell>
        <mxCell id="wyf09ecqhNXCvQuimi6P-54" value="" style="endArrow=classic;html=1;rounded=0;entryX=0.5;entryY=0;entryDx=0;entryDy=0;exitX=0.5;exitY=1;exitDx=0;exitDy=0;dashed=1;" edge="1" parent="1" source="wyf09ecqhNXCvQuimi6P-46" target="wyf09ecqhNXCvQuimi6P-53">
          <mxGeometry width="50" height="50" relative="1" as="geometry">
            <mxPoint x="1141" y="261" as="sourcePoint" />
            <mxPoint x="832" y="296" as="targetPoint" />
          </mxGeometry>
        </mxCell>
        <mxCell id="wyf09ecqhNXCvQuimi6P-56" value="Безопасность" style="rounded=1;whiteSpace=wrap;html=1;arcSize=50;" vertex="1" parent="1">
          <mxGeometry x="958" y="142" width="120" height="44" as="geometry" />
        </mxCell>
        <mxCell id="wyf09ecqhNXCvQuimi6P-57" value="" style="endArrow=classic;html=1;rounded=0;entryX=0;entryY=0.5;entryDx=0;entryDy=0;exitX=0.8;exitY=0.15;exitDx=0;exitDy=0;exitPerimeter=0;" edge="1" parent="1" source="wyf09ecqhNXCvQuimi6P-9" target="wyf09ecqhNXCvQuimi6P-56">
          <mxGeometry width="50" height="50" relative="1" as="geometry">
            <mxPoint x="742" y="334" as="sourcePoint" />
            <mxPoint x="792" y="284" as="targetPoint" />
          </mxGeometry>
        </mxCell>
        <mxCell id="wyf09ecqhNXCvQuimi6P-59" value="Расписание занятий&amp;nbsp;&amp;nbsp;" style="rounded=1;whiteSpace=wrap;html=1;arcSize=50;" vertex="1" parent="1">
          <mxGeometry x="352" y="310" width="120" height="60" as="geometry" />
        </mxCell>
        <mxCell id="wyf09ecqhNXCvQuimi6P-61" value="" style="endArrow=classic;html=1;rounded=0;exitX=0.2;exitY=0.15;exitDx=0;exitDy=0;exitPerimeter=0;entryX=1;entryY=0.5;entryDx=0;entryDy=0;" edge="1" parent="1" source="wyf09ecqhNXCvQuimi6P-9" target="wyf09ecqhNXCvQuimi6P-59">
          <mxGeometry width="50" height="50" relative="1" as="geometry">
            <mxPoint x="340" y="292" as="sourcePoint" />
            <mxPoint x="390" y="242" as="targetPoint" />
          </mxGeometry>
        </mxCell>
        <mxCell id="wyf09ecqhNXCvQuimi6P-62" value="" style="endArrow=classic;html=1;rounded=0;exitX=0.8;exitY=0.15;exitDx=0;exitDy=0;exitPerimeter=0;entryX=0;entryY=0.5;entryDx=0;entryDy=0;" edge="1" parent="1" source="wyf09ecqhNXCvQuimi6P-8" target="wyf09ecqhNXCvQuimi6P-59">
          <mxGeometry width="50" height="50" relative="1" as="geometry">
            <mxPoint x="340" y="292" as="sourcePoint" />
            <mxPoint x="390" y="242" as="targetPoint" />
          </mxGeometry>
        </mxCell>
        <mxCell id="wyf09ecqhNXCvQuimi6P-63" value="Инструкторский состав" style="rounded=1;whiteSpace=wrap;html=1;arcSize=50;" vertex="1" parent="1">
          <mxGeometry x="866" y="61" width="120" height="60" as="geometry" />
        </mxCell>
        <mxCell id="wyf09ecqhNXCvQuimi6P-64" value="" style="endArrow=classic;html=1;rounded=0;exitX=0.8;exitY=0.15;exitDx=0;exitDy=0;exitPerimeter=0;entryX=0.5;entryY=1;entryDx=0;entryDy=0;" edge="1" parent="1" source="wyf09ecqhNXCvQuimi6P-9" target="wyf09ecqhNXCvQuimi6P-63">
          <mxGeometry width="50" height="50" relative="1" as="geometry">
            <mxPoint x="628" y="226" as="sourcePoint" />
            <mxPoint x="678" y="176" as="targetPoint" />
          </mxGeometry>
        </mxCell>
        <mxCell id="wyf09ecqhNXCvQuimi6P-66" value="Учебные программы" style="rounded=1;whiteSpace=wrap;html=1;arcSize=50;" vertex="1" parent="1">
          <mxGeometry x="355" y="405" width="114" height="60" as="geometry" />
        </mxCell>
        <mxCell id="wyf09ecqhNXCvQuimi6P-68" value="" style="endArrow=classic;html=1;rounded=0;exitX=0.8;exitY=0.15;exitDx=0;exitDy=0;exitPerimeter=0;entryX=0;entryY=0.5;entryDx=0;entryDy=0;" edge="1" parent="1" source="wyf09ecqhNXCvQuimi6P-8" target="wyf09ecqhNXCvQuimi6P-66">
          <mxGeometry width="50" height="50" relative="1" as="geometry">
            <mxPoint x="398" y="506" as="sourcePoint" />
            <mxPoint x="448" y="456" as="targetPoint" />
          </mxGeometry>
        </mxCell>
        <mxCell id="wyf09ecqhNXCvQuimi6P-69" value="" style="endArrow=classic;html=1;rounded=0;exitX=0.2;exitY=0.15;exitDx=0;exitDy=0;exitPerimeter=0;entryX=1;entryY=0.5;entryDx=0;entryDy=0;" edge="1" parent="1" source="wyf09ecqhNXCvQuimi6P-9" target="wyf09ecqhNXCvQuimi6P-66">
          <mxGeometry width="50" height="50" relative="1" as="geometry">
            <mxPoint x="398" y="506" as="sourcePoint" />
            <mxPoint x="448" y="456" as="targetPoint" />
          </mxGeometry>
        </mxCell>
        <mxCell id="wyf09ecqhNXCvQuimi6P-70" value="Теоретические занятия" style="rounded=1;whiteSpace=wrap;html=1;arcSize=50;" vertex="1" parent="1">
          <mxGeometry x="262" y="500" width="120" height="60" as="geometry" />
        </mxCell>
        <mxCell id="wyf09ecqhNXCvQuimi6P-71" value="" style="endArrow=classic;html=1;rounded=0;exitX=0.5;exitY=1;exitDx=0;exitDy=0;entryX=0.5;entryY=0;entryDx=0;entryDy=0;dashed=1;" edge="1" parent="1" source="wyf09ecqhNXCvQuimi6P-66" target="wyf09ecqhNXCvQuimi6P-70">
          <mxGeometry width="50" height="50" relative="1" as="geometry">
            <mxPoint x="398" y="506" as="sourcePoint" />
            <mxPoint x="448" y="456" as="targetPoint" />
          </mxGeometry>
        </mxCell>
        <mxCell id="wyf09ecqhNXCvQuimi6P-72" value="Практические занятия" style="rounded=1;whiteSpace=wrap;html=1;arcSize=50;" vertex="1" parent="1">
          <mxGeometry x="413" y="500" width="120" height="60" as="geometry" />
        </mxCell>
        <mxCell id="wyf09ecqhNXCvQuimi6P-73" value="" style="endArrow=classic;html=1;rounded=0;exitX=0.5;exitY=1;exitDx=0;exitDy=0;entryX=0.5;entryY=0;entryDx=0;entryDy=0;dashed=1;" edge="1" parent="1" source="wyf09ecqhNXCvQuimi6P-66" target="wyf09ecqhNXCvQuimi6P-72">
          <mxGeometry width="50" height="50" relative="1" as="geometry">
            <mxPoint x="398" y="506" as="sourcePoint" />
            <mxPoint x="448" y="456" as="targetPoint" />
          </mxGeometry>
        </mxCell>
        <mxCell id="wyf09ecqhNXCvQuimi6P-75" value="&amp;lt;&amp;lt;include&amp;gt;&amp;gt;" style="text;html=1;align=center;verticalAlign=middle;resizable=0;points=[];autosize=1;strokeColor=none;fillColor=none;" vertex="1" parent="1">
          <mxGeometry x="174" y="81" width="84" height="26" as="geometry" />
        </mxCell>
        <mxCell id="wyf09ecqhNXCvQuimi6P-76" value="&amp;lt;&amp;lt;include&amp;gt;&amp;gt;" style="text;html=1;align=center;verticalAlign=middle;resizable=0;points=[];autosize=1;strokeColor=none;fillColor=none;" vertex="1" parent="1">
          <mxGeometry x="229" y="121" width="84" height="26" as="geometry" />
        </mxCell>
        <mxCell id="wyf09ecqhNXCvQuimi6P-77" value="&amp;lt;&amp;lt;include&amp;gt;&amp;gt;" style="text;html=1;align=center;verticalAlign=middle;resizable=0;points=[];autosize=1;strokeColor=none;fillColor=none;" vertex="1" parent="1">
          <mxGeometry x="391" y="109" width="84" height="26" as="geometry" />
        </mxCell>
        <mxCell id="wyf09ecqhNXCvQuimi6P-78" value="&amp;lt;&amp;lt;include&amp;gt;&amp;gt;" style="text;html=1;align=center;verticalAlign=middle;resizable=0;points=[];autosize=1;strokeColor=none;fillColor=none;" vertex="1" parent="1">
          <mxGeometry x="455" y="84" width="84" height="26" as="geometry" />
        </mxCell>
        <mxCell id="wyf09ecqhNXCvQuimi6P-79" value="&amp;lt;&amp;lt;include&amp;gt;&amp;gt;" style="text;html=1;align=center;verticalAlign=middle;resizable=0;points=[];autosize=1;strokeColor=none;fillColor=none;" vertex="1" parent="1">
          <mxGeometry x="258" y="461" width="84" height="26" as="geometry" />
        </mxCell>
        <mxCell id="wyf09ecqhNXCvQuimi6P-81" value="&amp;lt;&amp;lt;include&amp;gt;&amp;gt;" style="text;html=1;align=center;verticalAlign=middle;resizable=0;points=[];autosize=1;strokeColor=none;fillColor=none;" vertex="1" parent="1">
          <mxGeometry x="464.5" y="461" width="84" height="26" as="geometry" />
        </mxCell>
        <mxCell id="wyf09ecqhNXCvQuimi6P-82" value="&amp;lt;&amp;lt;include&amp;gt;&amp;gt;" style="text;html=1;align=center;verticalAlign=middle;resizable=0;points=[];autosize=1;strokeColor=none;fillColor=none;" vertex="1" parent="1">
          <mxGeometry x="651" y="487" width="84" height="26" as="geometry" />
        </mxCell>
        <mxCell id="wyf09ecqhNXCvQuimi6P-83" value="&amp;lt;&amp;lt;include&amp;gt;&amp;gt;" style="text;html=1;align=center;verticalAlign=middle;resizable=0;points=[];autosize=1;strokeColor=none;fillColor=none;" vertex="1" parent="1">
          <mxGeometry x="727" y="474" width="84" height="26" as="geometry" />
        </mxCell>
        <mxCell id="wyf09ecqhNXCvQuimi6P-84" value="&amp;lt;&amp;lt;include&amp;gt;&amp;gt;" style="text;html=1;align=center;verticalAlign=middle;resizable=0;points=[];autosize=1;strokeColor=none;fillColor=none;" vertex="1" parent="1">
          <mxGeometry x="874" y="490" width="84" height="26" as="geometry" />
        </mxCell>
        <mxCell id="wyf09ecqhNXCvQuimi6P-85" value="&amp;lt;&amp;lt;include&amp;gt;&amp;gt;" style="text;html=1;align=center;verticalAlign=middle;resizable=0;points=[];autosize=1;strokeColor=none;fillColor=none;" vertex="1" parent="1">
          <mxGeometry x="879" y="269" width="84" height="26" as="geometry" />
        </mxCell>
        <mxCell id="wyf09ecqhNXCvQuimi6P-86" value="&amp;lt;&amp;lt;include&amp;gt;&amp;gt;" style="text;html=1;align=center;verticalAlign=middle;resizable=0;points=[];autosize=1;strokeColor=none;fillColor=none;" vertex="1" parent="1">
          <mxGeometry x="963" y="284" width="84" height="26" as="geometry" />
        </mxCell>
        <mxCell id="wyf09ecqhNXCvQuimi6P-87" value="&amp;lt;&amp;lt;include&amp;gt;&amp;gt;" style="text;html=1;align=center;verticalAlign=middle;resizable=0;points=[];autosize=1;strokeColor=none;fillColor=none;" vertex="1" parent="1">
          <mxGeometry x="1137" y="273" width="84" height="26" as="geometry" />
        </mxCell>
        <mxCell id="qBSEFV437wYrE5OOk0-k-2" value="" style="html=1;whiteSpace=wrap;fillColor=#ffff99;shape=mxgraph.archimate3.actor;fontSize=14;" vertex="1" parent="1">
          <mxGeometry x="275" y="936" width="50" height="95" as="geometry" />
        </mxCell>
        <mxCell id="qBSEFV437wYrE5OOk0-k-3" value="Операционист" style="text;html=1;align=center;verticalAlign=middle;resizable=0;points=[];autosize=1;strokeColor=none;fillColor=none;" vertex="1" parent="1">
          <mxGeometry x="250" y="1038" width="99" height="26" as="geometry" />
        </mxCell>
        <mxCell id="qBSEFV437wYrE5OOk0-k-4" value="" style="html=1;whiteSpace=wrap;fillColor=#ffff99;shape=mxgraph.archimate3.actor;fontSize=14;" vertex="1" parent="1">
          <mxGeometry x="275" y="717" width="50" height="95" as="geometry" />
        </mxCell>
        <mxCell id="qBSEFV437wYrE5OOk0-k-5" value="Клиент банка" style="text;html=1;align=center;verticalAlign=middle;resizable=0;points=[];autosize=1;strokeColor=none;fillColor=none;" vertex="1" parent="1">
          <mxGeometry x="253" y="810" width="93" height="26" as="geometry" />
        </mxCell>
        <mxCell id="qBSEFV437wYrE5OOk0-k-6" value="Пополнить счёт" style="rounded=1;whiteSpace=wrap;html=1;arcSize=50;" vertex="1" parent="1">
          <mxGeometry x="480" y="729" width="120" height="60" as="geometry" />
        </mxCell>
        <mxCell id="qBSEFV437wYrE5OOk0-k-7" value="Снять со счёта" style="rounded=1;whiteSpace=wrap;html=1;arcSize=50;" vertex="1" parent="1">
          <mxGeometry x="480" y="949" width="120" height="60" as="geometry" />
        </mxCell>
        <mxCell id="qBSEFV437wYrE5OOk0-k-8" value="Открыть счёт" style="rounded=1;whiteSpace=wrap;html=1;arcSize=50;" vertex="1" parent="1">
          <mxGeometry x="768" y="729" width="120" height="60" as="geometry" />
        </mxCell>
        <mxCell id="qBSEFV437wYrE5OOk0-k-9" value="Закрыть счёт" style="rounded=1;whiteSpace=wrap;html=1;arcSize=50;" vertex="1" parent="1">
          <mxGeometry x="768" y="949" width="120" height="60" as="geometry" />
        </mxCell>
        <mxCell id="qBSEFV437wYrE5OOk0-k-10" value="" style="html=1;whiteSpace=wrap;fillColor=#ffff99;shape=mxgraph.archimate3.actor;fontSize=14;" vertex="1" parent="1">
          <mxGeometry x="803" y="809" width="50" height="95" as="geometry" />
        </mxCell>
        <mxCell id="qBSEFV437wYrE5OOk0-k-11" value="Кассир" style="text;html=1;align=center;verticalAlign=middle;resizable=0;points=[];autosize=1;strokeColor=none;fillColor=none;" vertex="1" parent="1">
          <mxGeometry x="799.5" y="910" width="57" height="26" as="geometry" />
        </mxCell>
        <mxCell id="qBSEFV437wYrE5OOk0-k-12" value="" style="endArrow=classic;html=1;rounded=0;exitX=0;exitY=0.5;exitDx=0;exitDy=0;entryX=1;entryY=0.5;entryDx=0;entryDy=0;dashed=1;" edge="1" parent="1" source="qBSEFV437wYrE5OOk0-k-9" target="qBSEFV437wYrE5OOk0-k-7">
          <mxGeometry width="50" height="50" relative="1" as="geometry">
            <mxPoint x="680" y="958" as="sourcePoint" />
            <mxPoint x="730" y="908" as="targetPoint" />
          </mxGeometry>
        </mxCell>
        <mxCell id="qBSEFV437wYrE5OOk0-k-13" value="" style="endArrow=classic;html=1;rounded=0;entryX=1;entryY=0.5;entryDx=0;entryDy=0;exitX=0;exitY=0.5;exitDx=0;exitDy=0;dashed=1;" edge="1" parent="1" source="qBSEFV437wYrE5OOk0-k-8" target="qBSEFV437wYrE5OOk0-k-6">
          <mxGeometry width="50" height="50" relative="1" as="geometry">
            <mxPoint x="679" y="893" as="sourcePoint" />
            <mxPoint x="729" y="843" as="targetPoint" />
          </mxGeometry>
        </mxCell>
        <mxCell id="qBSEFV437wYrE5OOk0-k-14" value="" style="endArrow=none;html=1;rounded=0;entryX=1;entryY=0.5;entryDx=0;entryDy=0;exitX=0;exitY=0.45;exitDx=0;exitDy=0;exitPerimeter=0;" edge="1" parent="1" source="qBSEFV437wYrE5OOk0-k-10" target="qBSEFV437wYrE5OOk0-k-6">
          <mxGeometry width="50" height="50" relative="1" as="geometry">
            <mxPoint x="679" y="893" as="sourcePoint" />
            <mxPoint x="729" y="843" as="targetPoint" />
          </mxGeometry>
        </mxCell>
        <mxCell id="qBSEFV437wYrE5OOk0-k-16" value="" style="endArrow=none;html=1;rounded=0;exitX=1;exitY=0.5;exitDx=0;exitDy=0;entryX=0;entryY=0.45;entryDx=0;entryDy=0;entryPerimeter=0;" edge="1" parent="1" source="qBSEFV437wYrE5OOk0-k-7" target="qBSEFV437wYrE5OOk0-k-10">
          <mxGeometry width="50" height="50" relative="1" as="geometry">
            <mxPoint x="679" y="893" as="sourcePoint" />
            <mxPoint x="729" y="843" as="targetPoint" />
          </mxGeometry>
        </mxCell>
        <mxCell id="qBSEFV437wYrE5OOk0-k-17" value="" style="endArrow=none;html=1;rounded=0;exitX=0;exitY=0.5;exitDx=0;exitDy=0;entryX=1;entryY=0.45;entryDx=0;entryDy=0;entryPerimeter=0;" edge="1" parent="1" source="qBSEFV437wYrE5OOk0-k-6" target="qBSEFV437wYrE5OOk0-k-2">
          <mxGeometry width="50" height="50" relative="1" as="geometry">
            <mxPoint x="679" y="893" as="sourcePoint" />
            <mxPoint x="729" y="843" as="targetPoint" />
          </mxGeometry>
        </mxCell>
        <mxCell id="qBSEFV437wYrE5OOk0-k-18" value="" style="endArrow=none;html=1;rounded=0;exitX=1;exitY=0.45;exitDx=0;exitDy=0;exitPerimeter=0;entryX=0;entryY=0.5;entryDx=0;entryDy=0;" edge="1" parent="1" source="qBSEFV437wYrE5OOk0-k-2" target="qBSEFV437wYrE5OOk0-k-7">
          <mxGeometry width="50" height="50" relative="1" as="geometry">
            <mxPoint x="679" y="893" as="sourcePoint" />
            <mxPoint x="729" y="843" as="targetPoint" />
          </mxGeometry>
        </mxCell>
        <mxCell id="qBSEFV437wYrE5OOk0-k-19" value="" style="endArrow=none;html=1;rounded=0;exitX=0;exitY=0.5;exitDx=0;exitDy=0;entryX=1;entryY=0.45;entryDx=0;entryDy=0;entryPerimeter=0;" edge="1" parent="1" source="qBSEFV437wYrE5OOk0-k-7" target="qBSEFV437wYrE5OOk0-k-4">
          <mxGeometry width="50" height="50" relative="1" as="geometry">
            <mxPoint x="679" y="893" as="sourcePoint" />
            <mxPoint x="729" y="843" as="targetPoint" />
          </mxGeometry>
        </mxCell>
        <mxCell id="qBSEFV437wYrE5OOk0-k-20" value="" style="endArrow=none;html=1;rounded=0;exitX=1;exitY=0.45;exitDx=0;exitDy=0;exitPerimeter=0;entryX=0;entryY=0.5;entryDx=0;entryDy=0;" edge="1" parent="1" source="qBSEFV437wYrE5OOk0-k-4" target="qBSEFV437wYrE5OOk0-k-6">
          <mxGeometry width="50" height="50" relative="1" as="geometry">
            <mxPoint x="679" y="893" as="sourcePoint" />
            <mxPoint x="729" y="843" as="targetPoint" />
          </mxGeometry>
        </mxCell>
        <mxCell id="qBSEFV437wYrE5OOk0-k-21" value="&amp;lt;&amp;lt;extend&amp;gt;&amp;gt;" style="text;html=1;align=center;verticalAlign=middle;resizable=0;points=[];autosize=1;strokeColor=none;fillColor=none;" vertex="1" parent="1">
          <mxGeometry x="641" y="951" width="82" height="26" as="geometry" />
        </mxCell>
        <mxCell id="qBSEFV437wYrE5OOk0-k-22" value="&amp;lt;&amp;lt;extend&amp;gt;&amp;gt;" style="text;html=1;align=center;verticalAlign=middle;resizable=0;points=[];autosize=1;strokeColor=none;fillColor=none;" vertex="1" parent="1">
          <mxGeometry x="643" y="729" width="82" height="26" as="geometry" />
        </mxCell>
      </root>
    </mxGraphModel>
  </diagram>
</mxfile>
